<?xml version="1.0" standalone="no"?>
<!DOCTYPE svg PUBLIC "-//W3C//DTD SVG 20010904//EN"
 "http://www.w3.org/TR/2001/REC-SVG-20010904/DTD/svg10.dtd">
<svg version="1.0" xmlns="http://www.w3.org/2000/svg"
 width="378.000000pt" height="378.000000pt" viewBox="0 0 378.000000 378.000000"
 preserveAspectRatio="xMidYMid meet">
<metadata>
Created by potrace 1.14, written by Peter Selinger 2001-2017
</metadata>
<g transform="translate(0.000000,378.000000) scale(0.100000,-0.100000)"
fill="#000000" stroke="none">
<path d="M235 2410 c-4 -6 8 -10 29 -10 19 0 37 -3 39 -7 3 -5 -20 -96 -49
-203 -30 -107 -54 -206 -54 -220 0 -37 34 -86 67 -98 36 -12 93 5 130 40 68
62 103 206 66 269 -30 51 -107 44 -147 -13 -9 -12 -17 -20 -20 -17 -2 2 11 60
30 128 18 68 31 127 28 132 -7 12 -111 11 -119 -1z m185 -225 c19 -23 7 -133
-22 -196 -49 -105 -104 -136 -137 -77 -13 23 -13 35 -2 90 28 136 116 237 161
183z"/>
<path d="M1000 2410 c0 -5 16 -10 35 -10 24 0 35 -5 35 -15 0 -8 -22 -96 -50
-197 -59 -215 -61 -245 -22 -290 69 -76 187 -8 236 136 20 59 20 99 1 136 -31
60 -84 63 -144 7 -39 -37 -40 -50 8 125 15 59 26 110 23 113 -10 9 -122 5
-122 -5z m194 -243 c20 -57 -31 -213 -87 -266 -33 -30 -74 -23 -83 15 -33 131
129 370 170 251z"/>
<path d="M2310 2410 c-11 -7 -4 -10 28 -10 23 0 42 -5 42 -10 0 -11 -15 -69
-74 -285 -51 -183 -46 -242 16 -233 24 3 72 66 83 108 4 14 -8 0 -27 -30 -18
-30 -42 -56 -52 -58 -17 -4 -18 1 -13 44 3 27 31 141 62 253 31 113 54 210 51
218 -6 15 -93 18 -116 3z"/>
<path d="M3120 2410 c-11 -7 -6 -10 22 -10 20 0 39 -4 43 -9 3 -5 -8 -59 -25
-120 -16 -61 -30 -115 -30 -119 0 -4 -9 8 -20 25 -27 46 -60 51 -114 19 -60
-35 -116 -142 -116 -221 0 -109 78 -142 151 -65 21 22 41 40 44 40 3 0 5 -12
5 -27 0 -41 13 -55 46 -51 30 3 74 57 89 108 4 14 -8 0 -27 -30 -39 -65 -68
-78 -68 -30 0 17 25 123 56 235 30 112 56 217 57 232 2 27 0 28 -48 31 -27 1
-57 -2 -65 -8z m-30 -225 c17 -21 16 -79 -3 -146 -28 -96 -99 -176 -135 -152
-29 18 -21 133 15 213 16 36 37 73 47 83 21 21 59 22 76 2z"/>
<path d="M2050 2396 c-43 -14 -86 -73 -102 -143 -12 -49 -14 -52 -67 -74 -65
-27 -138 -90 -157 -136 -33 -77 -6 -154 59 -171 39 -10 94 3 123 29 26 25 32
24 56 -6 15 -19 29 -25 60 -25 35 0 47 6 79 40 39 40 74 98 66 106 -2 2 -15
-13 -29 -34 -37 -55 -87 -102 -108 -102 -24 0 -40 29 -40 72 0 26 17 54 86
141 91 113 116 130 112 75 -3 -27 1 -33 17 -33 15 0 21 8 23 32 3 27 -1 35
-21 44 -37 17 -58 0 -138 -106 -39 -52 -73 -95 -75 -95 -2 0 -4 44 -4 98 l0
97 49 18 c60 21 101 66 101 111 0 57 -33 81 -90 62z m64 -38 c18 -51 -27 -110
-101 -133 -21 -6 -23 -3 -23 27 0 41 32 112 57 127 29 17 57 9 67 -21z m-174
-296 c0 -110 -2 -120 -22 -139 -78 -70 -138 -49 -138 48 0 77 34 146 89 180
71 45 71 45 71 -89z"/>
<path d="M675 2206 c-67 -29 -125 -130 -127 -220 -3 -123 90 -161 160 -65 l29
39 7 -40 c12 -74 70 -67 116 13 16 28 30 59 30 67 0 8 -14 -11 -31 -42 -31
-57 -55 -76 -72 -59 -8 8 23 144 62 279 9 30 8 32 -14 32 -19 0 -26 -7 -33
-32 l-9 -33 -11 27 c-11 27 -40 48 -64 48 -7 -1 -27 -7 -43 -14z m86 -28 c43
-79 -77 -331 -139 -291 -25 16 -21 131 7 204 38 98 103 141 132 87z"/>
<path d="M1382 2204 c-23 -16 -77 -112 -69 -121 3 -2 17 19 32 49 27 54 40 68
63 68 26 0 23 -31 -13 -119 -55 -136 -50 -211 14 -211 34 0 65 22 102 73 34
47 35 44 10 -48 -36 -138 -71 -185 -137 -185 -36 0 -43 14 -24 50 14 27 -14
54 -41 40 -29 -16 -25 -64 7 -89 69 -55 171 -2 220 115 15 35 104 357 104 377
0 5 -10 7 -21 5 -17 -2 -27 -20 -50 -91 -16 -48 -40 -108 -55 -132 -31 -54
-90 -107 -112 -103 -28 5 -25 41 12 131 40 95 47 165 20 191 -20 20 -34 20
-62 0z"/>
<path d="M2594 2201 c-50 -31 -91 -89 -110 -157 -28 -104 -1 -174 69 -174 39
0 57 12 92 59 l25 35 0 -28 c0 -54 39 -84 75 -58 16 11 53 66 65 96 14 38 3
32 -19 -11 -27 -53 -58 -80 -74 -64 -9 9 -5 39 22 139 49 185 48 174 20 170
-16 -2 -25 -11 -27 -25 -3 -22 -22 -33 -22 -13 0 16 -43 50 -64 50 -12 0 -35
-9 -52 -19z m90 -17 c47 -47 -34 -277 -105 -299 -17 -6 -27 -2 -42 16 -22 27
-18 76 15 174 36 108 89 152 132 109z"/>
<path d="M3346 2199 c-27 -21 -83 -119 -69 -119 5 0 22 26 38 58 21 40 37 58
53 60 32 5 29 -32 -8 -121 -40 -93 -48 -148 -26 -182 32 -49 80 -31 149 55 32
39 32 40 -8 -94 -32 -106 -64 -146 -119 -146 -43 0 -49 8 -33 49 10 26 9 33
-3 41 -25 15 -50 -7 -50 -45 0 -28 6 -37 30 -50 40 -21 79 -19 120 6 67 41 88
84 145 296 26 92 49 176 51 186 4 13 -1 17 -18 17 -21 0 -26 -10 -50 -87 -41
-135 -129 -256 -173 -239 -24 9 -18 49 20 140 39 95 45 154 17 179 -24 22 -34
21 -66 -4z"/>
<path d="M1518 1602 c11 -7 8 -28 -12 -110 -30 -117 -30 -112 -13 -112 6 0 23
30 37 66 31 80 29 157 -5 162 -14 2 -16 1 -7 -6z"/>
<path d="M1628 1603 c17 -7 15 -48 -8 -128 -24 -84 -25 -95 -5 -95 8 0 15 8
15 18 0 9 11 41 25 70 13 29 20 50 14 47 -6 -4 -7 3 -3 19 10 42 -3 76 -29 75
-12 0 -16 -3 -9 -6z"/>
<path d="M1753 1603 c23 -6 22 -23 -8 -93 -35 -84 -30 -130 14 -130 12 0 11 3
-3 13 -17 12 -16 16 9 72 39 90 36 146 -8 144 -17 -1 -18 -2 -4 -6z"/>
<path d="M1925 1588 c-55 -43 -81 -141 -49 -186 20 -29 52 -28 85 4 l28 27 7
-27 c4 -18 13 -26 28 -26 17 0 18 2 6 10 -12 8 -11 22 9 104 12 53 23 99 23
103 -1 17 -21 12 -27 -7 -3 -11 -11 -18 -16 -15 -5 4 -9 -6 -9 -22 0 -72 -50
-163 -90 -163 -23 0 -30 28 -19 84 15 82 52 133 89 123 11 -3 18 -1 14 4 -10
16 -51 10 -79 -13z"/>
<path d="M2190 1590 c-37 -37 -24 -77 36 -117 26 -16 31 -52 12 -71 -17 -17
-73 -15 -88 3 -10 13 -10 19 4 34 20 22 4 40 -19 21 -20 -17 -19 -36 5 -60 40
-40 119 -18 135 38 6 19 -2 31 -39 66 -25 23 -46 49 -46 58 0 24 25 40 57 36
25 -3 28 -6 25 -35 -2 -24 1 -33 11 -33 23 0 29 30 12 56 -20 31 -76 33 -105
4z"/>
<path d="M2400 1590 c-32 -32 -25 -67 20 -107 57 -51 50 -93 -14 -93 -49 0
-63 13 -46 44 17 32 6 46 -18 23 -15 -16 -15 -20 -2 -45 27 -47 109 -43 135 8
19 37 11 56 -40 94 -53 41 -41 91 22 84 27 -3 31 -11 22 -47 -6 -21 27 -25 35
-5 4 9 -1 27 -9 40 -20 31 -76 33 -105 4z"/>
<path d="M2604 1575 c-44 -47 -65 -132 -40 -169 17 -27 49 -33 76 -16 11 7 6
8 -17 4 l-33 -6 0 44 c0 87 45 173 86 165 13 -2 21 0 18 4 -13 21 -58 8 -90
-26z"/>
<path d="M2717 1570 c-9 -22 -17 -46 -17 -53 0 -6 -9 -31 -19 -54 -14 -30 -16
-40 -6 -37 8 4 15 -3 17 -18 2 -14 11 -24 23 -26 15 -2 17 -1 6 6 -12 8 -10
25 9 103 28 115 27 111 15 115 -6 2 -18 -14 -28 -36z"/>
<path d="M2888 1587 c-31 -26 -54 -69 -63 -120 -12 -64 37 -109 85 -77 11 7 6
8 -17 4 l-33 -6 0 44 c0 111 76 212 110 148 12 -22 0 -82 -27 -134 -8 -15 -10
-25 -4 -22 15 10 14 -2 -5 -60 -9 -27 -26 -59 -37 -71 -29 -33 -93 -29 -66 3
12 15 4 34 -16 34 -10 0 -25 -20 -25 -35 0 -15 37 -35 64 -35 43 0 80 29 99
79 24 59 76 259 69 265 -11 11 -20 6 -26 -16 l-6 -23 -15 23 c-20 28 -53 28
-87 -1z"/>
<path d="M3126 1585 c-15 -14 -34 -41 -42 -60 -46 -111 37 -195 112 -112 l29
32 -31 -27 c-53 -49 -101 -27 -88 40 5 25 13 32 48 41 53 13 79 40 74 78 -3
24 -8 28 -39 31 -26 2 -42 -3 -63 -23z m84 -13 c0 -33 -22 -56 -64 -66 -28 -7
-29 -6 -22 26 12 62 86 96 86 40z"/>
<path d="M2761 1433 c-10 -26 -10 -27 4 -9 8 11 15 23 15 28 0 15 -7 8 -19
-19z"/>
</g>
</svg>
